# xmcd
#
# Track frame offsets:
#	150
#	12794
#	31089
#	44924
#	58225
#	70499
#	87619
#	105736
#	119864
#	137911
#	160747
#	173963
#	190168
#	201604
#
# Disc length: 3010 seconds
#
# Revision: 1
# Processed by: cddbd v1.5.2PL0 Copyright (c) Steve Scherf et al.
# Submitted via: audiograbber 1.83.01
#
DISCID=db0bc00e
DTITLE=River Jam - River Jam
DYEAR=2006
DGENRE=Country
TTITLE0=Love's Gonna Live Here
TTITLE1=If You've Got Leavin' On Your Mind
TTITLE2=I'll Love You Anyway
TTITLE3=Georgia On A First Train
TTITLE4=Yes Ma'am
TTITLE5=Don't You Ever Get Tired Of Hurting Me
TTITLE6=Tonight The Heartaches On Me
TTITLE7=Sleep Walk
TTITLE8=So Long Memphis Blues
TTITLE9=My Dads Wife
TTITLE10=Green River
TTITLE11=I'll Always Love You (Janet)
TTITLE12=That's What I Like About You
TTITLE13=Beulah Land
EXTD=
EXTT0=
EXTT1=
EXTT2=
EXTT3=
EXTT4=
EXTT5=
EXTT6=
EXTT7=
EXTT8=
EXTT9=
EXTT10=
EXTT11=
EXTT12=
EXTT13=
PLAYORDER=
